# xmcd
#
# Track frame offsets: 
#        150
#        46475
#        55832
#        75680
#        92787
#        103507
#        116747
#        128095
#        141992
#        168317
#        184169
#        207928
#        225756
#        240215
#        259415
#        298148
#        317050
#
# Disc length: 4636 seconds
#
# Revision: 0
# Processed by: cddbd v1.5.2PL0 Copyright (c) Steve Scherf et al.
# Submitted via: ExactAudioCopy v0.95b4
#
DISCID=ed121a11
DTITLE=B. B. King - Lucille - Six silver strings
DYEAR=2004
DGENRE=Blues
TTITLE0=Lucille
TTITLE1=You move me so
TTITLE2=Country girl
TTITLE3=No money no luck
TTITLE4=I need your love
TTITLE5=Rainin9 allthe time
TTITLE6=J'm with you
TTITLE7=Stop putting the hurt on me
TTITLE8=Watch yourself
TTITLE9=Six silver strings
TTITLE10=Big boss mam
TTITLE11=In the midnight hour
TTITLE12=Into the night
TTITLE13=My lucille
TTITLE14=Memory lane
TTITLE15=My guitars sings the blues
TTITLE16=Double trouble
EXTD=
EXTT0=
EXTT1=
EXTT2=
EXTT3=
EXTT4=
EXTT5=
EXTT6=
EXTT7=
EXTT8=
EXTT9=
EXTT10=
EXTT11=
EXTT12=
EXTT13=
EXTT14=
EXTT15=
EXTT16=
PLAYORDER=
